<svg width="16" height="16" viewBox="0 0 16 16" fill="none" xmlns="http://www.w3.org/2000/svg">
<path fill-rule="evenodd" clip-rule="evenodd" d="M15.648 8.14761C15.648 7.5827 15.5973 7.03952 15.5032 6.51807H8V9.59972H12.2875C12.1028 10.5956 11.5415 11.4393 10.6978 12.0042V14.0031H13.2725C14.7789 12.6162 15.648 10.5738 15.648 8.14761Z" fill="#4285F4"/>
<path fill-rule="evenodd" clip-rule="evenodd" d="M8.00016 15.9332C10.1512 15.9332 11.9545 15.2198 13.2726 14.0031L10.698 12.0042C9.98459 12.4822 9.07204 12.7647 8.00016 12.7647C5.92521 12.7647 4.16892 11.3633 3.54245 9.48022H0.880859V11.5443C2.19174 14.148 4.88592 15.9332 8.00016 15.9332Z" fill="#34A853"/>
<path fill-rule="evenodd" clip-rule="evenodd" d="M3.54216 9.48034C3.38282 9.00234 3.29229 8.49175 3.29229 7.96667C3.29229 7.4416 3.38282 6.93101 3.54216 6.45301V4.38892H0.880567C0.341006 5.46442 0.0332031 6.68114 0.0332031 7.96667C0.0332031 9.2522 0.341006 10.4689 0.880567 11.5444L3.54216 9.48034Z" fill="#FBBC05"/>
<path fill-rule="evenodd" clip-rule="evenodd" d="M8.00016 3.16856C9.16981 3.16856 10.22 3.57052 11.0456 4.35994L13.3306 2.07495C11.9509 0.789424 10.1475 0 8.00016 0C4.88592 0 2.19174 1.78526 0.880859 4.38891L3.54245 6.453C4.16892 4.56997 5.92521 3.16856 8.00016 3.16856Z" fill="#EA4335"/>
</svg>
